<?xml version="1.0" encoding="utf-8"?>
<!-- Generator: Adobe Illustrator 28.1.0, SVG Export Plug-In . SVG Version: 6.00 Build 0)  -->
<svg version="1.1" id="Layer_1" xmlns="http://www.w3.org/2000/svg" xmlns:xlink="http://www.w3.org/1999/xlink" x="0px" y="0px" width="32" height="32"
	 viewBox="0 0 32 32" style="enable-background:new 0 0 32 32;" xml:space="preserve">
<style type="text/css">
	.st0{fill-rule:evenodd;clip-rule:evenodd;fill:#FFFFFF;}
</style>
<path d="M1.7,16.6c0-8.2,6.6-14.8,14.8-14.8h1.4C25.2,1.8,31,7.7,31,14.9C31,22.1,25.2,28,17.9,28H6.8l-4,2c-0.1,0-0.1,0.1-0.2,0.1
	c-0.4,0.3-0.9,0-0.9-0.5v-5.5V16.6z"/>
<path class="st0" d="M19.7,9.6c0.1-0.3,0-0.7-0.4-0.9c-0.3-0.1-0.7,0-0.9,0.4l-5.3,13.3c-0.1,0.3,0,0.7,0.4,0.9
	c0.3,0.1,0.7,0,0.9-0.4L19.7,9.6z M11.5,12.9c0.3,0.3,0.3,0.7,0,0.9L9.3,16l2.2,2.2c0.3,0.3,0.3,0.7,0,0.9c-0.3,0.3-0.7,0.3-0.9,0
	l-2.7-2.7c-0.3-0.3-0.3-0.7,0-0.9l2.7-2.7C10.8,12.6,11.3,12.6,11.5,12.9z M21.2,12.9c0.3-0.3,0.7-0.3,0.9,0l2.7,2.7
	c0.3,0.3,0.3,0.7,0,0.9l-2.7,2.7c-0.3,0.3-0.7,0.3-0.9,0c-0.3-0.3-0.3-0.7,0-0.9l2.2-2.2l-2.2-2.2C21,13.5,21,13.1,21.2,12.9z"/>
</svg>
