<?xml version="1.0" encoding="utf-8"?>
<!-- Generator: Adobe Illustrator 28.1.0, SVG Export Plug-In . SVG Version: 6.00 Build 0)  -->
<svg version="1.1" id="Layer_1" xmlns="http://www.w3.org/2000/svg" xmlns:xlink="http://www.w3.org/1999/xlink" x="0px" y="0px" width="32" height="32"
	 viewBox="0 0 32 32" style="enable-background:new 0 0 32 32;" xml:space="preserve">
<style type="text/css">
	.st0{fill-rule:evenodd;clip-rule:evenodd;fill:#FFFFFF;}
</style>
<path d="M1.4,16.5C1.4,8.3,8,1.7,16.1,1.7h1.4c7.2,0,13.1,5.9,13.1,13.1c0,7.2-5.9,13.1-13.1,13.1H6.4l-4,2c-0.1,0-0.1,0.1-0.2,0.1
	c-0.4,0.3-0.9,0-0.9-0.5V24V16.5z"/>
<path class="st0" d="M19.3,9.5c0.1-0.3,0-0.7-0.4-0.9c-0.3-0.1-0.7,0-0.9,0.4l-5.3,13.3c-0.1,0.3,0,0.7,0.4,0.9
	c0.3,0.1,0.7,0,0.9-0.4L19.3,9.5z M11.1,12.8c0.3,0.3,0.3,0.7,0,0.9L9,15.9l2.2,2.2c0.3,0.3,0.3,0.7,0,0.9c-0.3,0.3-0.7,0.3-0.9,0
	l-2.7-2.7c-0.3-0.3-0.3-0.7,0-0.9l2.7-2.7C10.5,12.5,10.9,12.5,11.1,12.8z M20.9,12.8c0.3-0.3,0.7-0.3,0.9,0l2.7,2.7
	c0.3,0.3,0.3,0.7,0,0.9l-2.7,2.7c-0.3,0.3-0.7,0.3-0.9,0c-0.3-0.3-0.3-0.7,0-0.9l2.2-2.2l-2.2-2.2C20.6,13.5,20.6,13,20.9,12.8z"/>
</svg>
